# xmcd
#
# Track frame offsets:
#	150
#	15714
#	30037
#	44547
#	59155
#	74969
#	89817
#	105675
#	119375
#	132508
#	146562
#	163023
#	172768
#	192253
#	208728
#	219929
#	231959
#	244866
#	258072
#	268375
#
# Disc length: 3796 seconds
#
# Revision: 0
# Processed by: cddbd v1.5.1PL0 Copyright (c) Steve Scherf et al.
# Submitted via: audiograbber 1.81.02
#
DISCID=340ed214
DTITLE=Diverse - Volksmusik Emotionen [CD2)
DYEAR=2004
DGENRE=Country
TTITLE0=Klostertaler - Bergrausch
TTITLE1=Oswald Sattler - Spiel mir das Lied der Heimat
TTITLE2=Alpentrio Tirol - Einmal möcht´ ich deine Berge seh´n
TTITLE3=Zellberg Buam - Der alte Holzmichl
TTITLE4=Wolfgang Hermann - Hör auf dein Herz
TTITLE5=Bergfeuer - Mit Dir will ich für immer
TTITLE6=Francine Jordi - Ich werd mit Dir geh´n
TTITLE7=Rudy Giovannini - Spiel noch einmal unser Lied
TTITLE8=Mara Kayser - Ich wünsch Dir alles Gute
TTITLE9=Dirk Schiefen - Santa Lucia
TTITLE10=Stephanie - So wie Feuer und Eis
TTITLE11=Die fidelen Mölltaler - Ein frohes Wiederseh´n
TTITLE12=Edward Simoni - Adagio
TTITLE13=Münchner Zwietracht - Alarm auf der Alm
TTITLE14=Heintje Simons - Frauen sind was wunderbares
TTITLE15=Karl Hanspeter u. s. Orig. Südtiroler Musikanten - Musikantenparty
TTITLE16=Slavko Avsenik u. s. Orig. Oberkrainer - Lustige Polkaparty
TTITLE17=Goldried Quintett - Wenn die Musi spielt
TTITLE18=Judith and Mel - Viel Glück
TTITLE19=Oswald Sattler and Jantje Smit - Wenn der Traum von Liebe erwacht
EXTD=
EXTT0=
EXTT1=
EXTT2=
EXTT3=
EXTT4=
EXTT5=
EXTT6=
EXTT7=
EXTT8=
EXTT9=
EXTT10=
EXTT11=
EXTT12=
EXTT13=
EXTT14=
EXTT15=
EXTT16=
EXTT17=
EXTT18=
EXTT19=
PLAYORDER=
